<?xml version="1.0" encoding="utf-8"?>
<!-- Generator: Adobe Illustrator 25.2.1, SVG Export Plug-In . SVG Version: 6.00 Build 0)  -->
<svg version="1.1" id="レイヤー_1" xmlns="http://www.w3.org/2000/svg" xmlns:xlink="http://www.w3.org/1999/xlink" x="0px"
	 y="0px" viewBox="0 0 502.6 502.6" style="enable-background:new 0 0 502.6 502.6;" xml:space="preserve">
<style type="text/css">
	.st0{fill:#FFFFFF;}
	.st1{fill:#0F4C81;}
	.st2{fill:#2F86AD;}
	.st3{fill:#3AB0CF;}
</style>
<g>
	<circle class="st0" cx="251.3" cy="251.3" r="231.2"/>
	<g>
		<g>
			<path class="st1" d="M454,332.3c10.1-25,15.7-52.4,15.7-81c0-105.7-75.2-193.8-174.9-214v295H454L454,332.3z"/>
		</g>
		<g>
			<path class="st2" d="M243,148.4c-17.6,0-33.6,0-35.5,0c-37.4-0.2-67.9,29.5-69.9,66.4c-0.3,2.6-0.5,5.1-0.3,7.5
				c0.3,8.1,2,16,4.8,23.6c3,7.5,6.9,14.9,11.9,22.1c5,7.1,11,14.8,16.7,22.3c7.1,9.3,33.6,47.3,33.1,47.3
				c8.6,16.4,13.6,35.1,13.6,55c0,3-0.3,6-0.5,9c-1.2,9.5-3.8,19.4-7.8,29.8c-4.5,11.3-9.9,21.4-16.1,30.3
				c18.5,5.1,38.1,7.8,58.1,7.8c72.1,0,136.1-35.1,175.9-89H243V148.4z"/>
		</g>
		<g>
			<path class="st3" d="M166.5,388c-0.3-8.6-2.1-16.9-5.6-25.2c-3.3-8.1-7.7-16.1-13.1-23.8c-5.4-7.7-10.8-15.2-17.2-23.3
				c-8-10.4-30.3-42-29.5-42c-8.6-16.4-13.6-35.1-13.6-55c0-7.7,0.8-15.4,2.3-22.6c1.5-5.9,3.3-11.7,5.9-18.1
				c5.9-14.8,13.1-27.1,21.4-37.4c14.8-16.9,34-29.4,56.2-35.8c8.4-2,17-2.4,25.9-2.6c3-0.2,23.2-0.2,44-0.2V32.9
				C126.3,37.4,32.9,133.4,32.9,251.1c0,83.7,47.1,156.3,116.3,193.1c10.5-12.3,17-28.3,17-45.8C166.3,397.5,166.5,390.4,166.5,388z
				"/>
		</g>
	</g>
</g>
</svg>
